<svg xmlns="http://www.w3.org/2000/svg" width="928" height="875.126" viewBox="0 0 928 875.126">
  <g id="Group_3" data-name="Group 3" transform="translate(-48.001 -76.874)">
    <path id="Exclusion_3" data-name="Exclusion 3" d="M552.417,1284.654h0l-131.43-9.379-4.645-66.511a16.221,16.221,0,0,0-14.628-15.022l-150.669-14.528c-.406-.038-.833-.058-1.346-.062V933.387h-.558c-9.786-12.492-19.514-25.712-28.915-39.293-9.127-13.186-18.286-27.2-27.225-41.667,5.709-9.717,11.962-19.561,18.586-29.26,6.274-9.188,13.09-18.546,20.257-27.815,13.131-16.981,27.622-33.961,44.3-51.909a812.721,812.721,0,0,1,82.535,48.011c10.967-10.9,23.305-20.288,35.237-29.37l.115-.087c2.628-2,4.834-3.682,7.057-5.392,9.836-7.9,20.7-14.452,31.214-20.79l.01-.006,0,0,.038-.022.028-.017.007,0c4.7-2.835,9.56-5.766,14.274-8.786-2.221-16.492-3.927-33.023-5.215-50.536-1.194-16.228-2-32.986-2.477-51.232,35.547-17.893,75.99-31.74,123.641-42.334a869.36,869.36,0,0,1,45.914,89.409,310.3,310.3,0,0,1,48.169-3.854V668.4a1.221,1.221,0,0,1,.15.012,1.179,1.179,0,0,0,.153.013,1.245,1.245,0,0,0,.144-.012l.022,0a1.244,1.244,0,0,1,.147-.011v.025c8.693.1,16.579.429,24.11,1,8.523.644,16.386,1.579,24.039,2.857a875.276,875.276,0,0,1,45.9-89.409c47.651,10.589,88.1,24.437,123.664,42.334-.477,18.265-1.288,35.022-2.48,51.232-1.288,17.51-2.99,34.041-5.2,50.536,4.807,3.087,9.712,6.045,14.455,8.9l.021.013c10.469,6.315,21.294,12.846,31.089,20.712,2.384,1.833,5.036,3.85,6.791,5.185l.005,0,.108.083,0,0,.015.013c12.012,9.138,24.432,18.587,35.475,29.562a812.925,812.925,0,0,1,82.536-48.011c16.7,17.972,31.19,34.951,44.308,51.909,7.156,9.252,13.973,18.61,20.261,27.815,6.611,9.681,12.864,19.525,18.584,29.26a883.492,883.492,0,0,1-56.141,80.959h-.558v226.134l-.062.021v19.61c-.5,0-.929.024-1.341.062l-150.611,14.528a16.23,16.23,0,0,0-14.628,15.022l-4.642,66.511-131.433,9.378-9.054-61.385a16.22,16.22,0,0,0-16.047-13.857H577.52a16.222,16.222,0,0,0-16.05,13.857l-9.053,61.385ZM656.993,995.507c-16.116,0-29.227,11.916-29.227,26.562v83.589c0,14.646,13.111,26.562,29.227,26.562,16.131,0,29.255-11.916,29.255-26.562v-83.589C686.247,1007.423,673.124,995.507,656.993,995.507Zm213.6-53.109a90.78,90.78,0,1,0,90.779,90.753A90.883,90.883,0,0,0,870.593,942.4Zm-427.178,0a90.78,90.78,0,1,0,90.8,90.753A90.873,90.873,0,0,0,443.416,942.4Z" transform="translate(-144.999 -506)" fill="#fff"/>
    <path id="Path_2" data-name="Path 2" d="M784.071,718.723l-4.666,66.864a16.23,16.23,0,0,1-15.031,15.052L603.884,812.09a16.226,16.226,0,0,1-17.2-13.82l-9.2-62.414H446.525l-9.2,62.414a16.212,16.212,0,0,1-17.2,13.82L259.628,800.639A16.23,16.23,0,0,1,244.6,785.587l-4.667-66.864L104.45,705.661c.062,14.561.25,30.512.25,33.688,0,143.085,181.51,211.86,407.024,212.651h.554c225.513-.791,406.961-69.566,406.961-212.651,0-3.235.2-19.119.263-33.688Z" fill="#fff"/>
  </g>
</svg>
