<svg aria-hidden="false" width="55" height="16"><g fill="#fff"><path d="M3 4.78717h3.89554c.93471 0 1.73195.14662 2.38258.43986.65063.29324 1.13628.69645 1.45708 1.21879.3207.52233.4856 1.11798.4856 1.7961 0 .65979-.1649 1.25544-.504 1.79608-.339.5315-.8522.9622-1.53948 1.2738-.68729.3116-1.53952.4673-2.55762.4673H3V4.78717Zm3.57388 5.21423c.63322 0 1.1189-.15581 1.45796-.47655.33906-.31157.51317-.75142.51317-1.29209 0-.50401-.15578-.90721-.45819-1.20962-.3024-.30241-.76059-.45819-1.37457-.45819h-1.2197v3.43645h1.08133ZM17.2882 11.7709c-.5407-.1374-1.0264-.339-1.4571-.614V9.4983c.3299.25659.7606.45819 1.3105.6231.5498.165 1.0813.2475 1.5945.2475.2382 0 .4215-.0275.5406-.0917.1192-.0641.1833-.1374.1833-.2291 0-.10077-.0367-.18325-.1008-.24739-.0641-.06415-.1924-.11913-.3849-.17412l-1.2004-.26575c-.6873-.15578-1.173-.38488-1.4662-.65979-.2933-.27492-.4307-.65063-.4307-1.10882 0-.38488.1283-.72394.3757-1.00802.2566-.28408.614-.50401 1.0813-.65979.4674-.15579 1.008-.23826 1.6403-.23826.559 0 1.0722.05498 1.5395.18328.4674.11913.8523.27491 1.1547.45819v1.56701c-.3116-.18328-.6781-.3299-1.0814-.43987-.4123-.10996-.8338-.16495-1.2645-.16495-.6232 0-.9348.10997-.9348.32074 0 .1008.0459.17411.1467.2291.1008.05498.2749.1008.5315.15578l.9988.18327c.6507.10997 1.1363.31157 1.4571.59565.3207.28408.4765.69645.4765 1.25544 0 .6048-.2658 1.0905-.7973 1.4387-.5315.3574-1.2829.5315-2.2543.5315-.5681-.0183-1.1179-.0916-1.6586-.2291ZM24.4735 11.5602c-.5681-.2841-1.008-.6598-1.2921-1.1363-.2932-.47657-.4307-1.01724-.4307-1.62205 0-.59564.1467-1.13631.4491-1.60366.3024-.47652.7422-.84307 1.3196-1.11799.5773-.26575 1.2737-.4032 2.0801-.4032.9989 0 1.8236.21076 2.4834.6323v1.8236c-.2291-.15578-.504-.29325-.8156-.38488-.3115-.10081-.6414-.14662-.9896-.14662-.6232 0-1.0997.10997-1.4571.33906-.3482.2291-.5223.52233-.5223.88888 0 .35739.1649.65064.5132.87973.339.2291.8338.34823 1.4753.34823.3299 0 .6598-.0458.9805-.14663.3208-.1008.6049-.21076.834-.35738v1.76861c-.7332.4399-1.5854.6598-2.5476.6598-.8156 0-1.5028-.1466-2.0802-.4215ZM31.6955 11.5602c-.5773-.2841-1.0172-.6598-1.3196-1.1455-.3024-.4857-.4582-1.02636-.4582-1.63117 0-.59565.1558-1.13631.4582-1.60367.3024-.46735.7423-.83391 1.3104-1.09966.5682-.26575 1.2555-.4032 2.0436-.4032s1.4754.12829 2.0444.4032c.5682.26575 1.0081.63231 1.3105 1.09966.3024.46736.449.99886.449 1.60367 0 .59565-.1466 1.14547-.449 1.63117s-.7331.8705-1.3105 1.1455c-.5782.2749-1.2563.4215-2.0444.4215-.7789 0-1.4571-.1466-2.0344-.4215Zm3.0332-1.76865c.2383-.23826.3666-.56816.3666-.96221 0-.4032-.1191-.71477-.3666-.95302-.2474-.23826-.5773-.3574-.9896-.3574-.4307 0-.7606.11914-1.0081.3574-.2382.23825-.3665.54982-.3665.95302 0 .40321.1191.72395.3665.96221.2475.24745.5774.36655 1.0081.36655.4123-.0092.7514-.1283.9896-.36655ZM43.6644 6.0435v2.15349c-.2566-.16495-.5865-.24743-.9897-.24743-.5315 0-.9439.16495-1.228.48568-.2841.32074-.4307.82475-.4307 1.50287v1.83279h-2.4467V5.9427h2.4009v1.86025c.1283-.67813.3482-1.18213.6415-1.50287.2932-.32073.6781-.49484 1.1455-.49484.3482 0 .6506.08247.9072.23826ZM51.9136 4.58649v7.19361h-2.4477v-1.3105c-.2107.4949-.5223.8706-.9438 1.1272-.4216.2566-.9439.3849-1.567.3849-.5499 0-1.0356-.1375-1.4479-.4032-.4124-.2658-.7331-.6415-.953-1.1089-.22-.47647-.33-1.00797-.33-1.59446-.0091-.61397.11-1.1638.3574-1.64948.2383-.48568.5865-.8614 1.0264-1.13631.4399-.27491.9439-.41237 1.512-.41237 1.1638 0 1.9427.50401 2.3459 1.52119V4.58649h2.4477ZM49.0994 9.7457c.2474-.23826.3757-.55899.3757-.94387 0-.37571-.1191-.67812-.3665-.90721-.2475-.2291-.5774-.34822-.9897-.34822-.4124 0-.7423.11913-.9897.35738-.2474.23826-.3666.54066-.3666.92554s.1192.68729.3666.92555c.2474.23826.5681.35743.9805.35743s.7423-.11917.9897-.3666ZM13.4751 6.29095c.7038 0 1.2738-.51317 1.2738-1.14548 0-.6323-.57-1.14547-1.2738-1.14547-.7028 0-1.2737.51317-1.2737 1.14547 0 .63231.5709 1.14548 1.2737 1.14548ZM14.7489 7.07812c-.7789.33907-1.7503.34823-2.5475 0v4.70108h2.5475V7.07812Z"/></g></svg>