<svg class="homeIcon-AaowEC" aria-hidden="false" width="28" height="20"><path fill="#fff" d="M23 1.7C21.3.9 19.5.3 17.7 0L17 1.4c-2-.3-4-.3-6 0L10.3 0C8.5.3 6.7 1 5 1.7c-3.4 5-4.4 10-3.9 15 2 1.4 4.2 2.6 6.6 3.3L9 17.7l-2.2-1 .5-.5c4.2 2 9 2 13.2 0l.5.4c-.7.4-1.4.8-2.2 1 .4.9.9 1.7 1.4 2.4 2.4-.7 4.6-1.9 6.6-3.4a23 23 0 0 0-3.9-15Zm-13.3 12c-1.3 0-2.4-1.3-2.4-2.7 0-1.5 1-2.7 2.4-2.7C11 8.3 12 9.5 12 11c0 1.4-1 2.6-2.3 2.6Zm8.6 0C17 13.6 16 12.3 16 11c0-1.5 1-2.7 2.3-2.7 1.3 0 2.4 1.2 2.4 2.7 0 1.4-1 2.6-2.4 2.6Z"/></svg>