<svg width="24" height="24" class="icon-3D60ES" aria-hidden="false"><path fill="#fff" d="M2 2a2 2 0 0 0-2 2v16a2 2 0 0 0 2 2h20a2 2 0 0 0 2-2V4a2 2 0 0 0-2-2H2Zm7.764 9.448v4.032c-.864.564-1.884.876-3.024.876-2.628 0-4.08-1.728-4.08-4.284 0-2.568 1.572-4.308 4.128-4.308 1.02 0 1.872.24 2.532.612l-.276 1.788c-.624-.396-1.356-.708-2.208-.708-1.428 0-2.124 1.056-2.124 2.604 0 1.56.72 2.652 2.148 2.652.456 0 .78-.096 1.116-.264v-1.476H6.428v-1.524h3.336Zm1.784-3.528H13.6v8.28h-2.052V7.92Zm8.924 0v1.716h-2.916v1.692h2.304v1.716h-2.304V16.2h-2.04V7.92h4.956Z"/></svg>