<svg width="24" height="24" aria-hidden="false"><path fill="#fff" fill-rule="evenodd" clip-rule="evenodd" d="M16.886 7.999H20c1.104 0 2 .897 2 2v2H2v-2c0-1.103.897-2 2-2h3.114a5.028 5.028 0 0 1-1.235-.878 3.002 3.002 0 0 1 0-4.242c1.133-1.133 3.107-1.133 4.242-.002 1.637 1.637 1.858 4.718 1.877 5.064a.094.094 0 0 1-.004.032.107.107 0 0 0-.004.026h.02a.108.108 0 0 0-.004-.026c-.003-.01-.005-.02-.004-.031.02-.346.24-3.427 1.877-5.064 1.135-1.133 3.107-1.132 4.242-.001a3.006 3.006 0 0 1 0 4.244 5.028 5.028 0 0 1-1.235.878ZM7.293 5.707A1.002 1.002 0 0 1 8 4c.268 0 .519.103.707.292.59.59.934 1.648 1.118 2.53-.88-.183-1.946-.529-2.532-1.115Zm6.881 1.117c.185-.883.528-1.941 1.119-2.531A.986.986 0 0 1 16 4c.268 0 .519.103.706.291.39.391.391 1.025.001 1.416-.591.591-1.65.935-2.533 1.117ZM3 13.999v6c0 1.103.897 2 2 2h6v-8H3Zm10 0v8h6c1.104 0 2-.897 2-2v-6h-8Z"/></svg>