<svg width="24" height="24" class="stickerIcon-3TP7EM" aria-hidden="false" viewBox="0 0 20 20"><path fill="transparent" fill-rule="evenodd" clip-rule="evenodd" d="M12 .663v4.739A2.594 2.594 0 0 0 14.6 8h4.74a.656.656 0 0 0 .466-1.12L13.121.196A.654.654 0 0 0 12 .663Zm2.576 9.365A4.608 4.608 0 0 1 9.97 5.422V.058H1.994A2 2 0 0 0 0 2.052v15.952a2 2 0 0 0 1.994 1.994h15.952a2 2 0 0 0 1.994-1.994v-7.976h-5.364ZM12 12.22a2 2 0 1 1-4 0H6.668a3.333 3.333 0 0 0 6.666 0H12Zm-7.554 1.111a1.111 1.111 0 1 1-2.222 0 1.111 1.111 0 0 1 2.222 0Zm12.22 1.111a1.11 1.11 0 1 0 0-2.222 1.11 1.11 0 0 0 0 2.222Z"/><path fill="#fff" class="hidden-vu5JrP" fill-rule="evenodd" clip-rule="evenodd" d="M12 .663v4.739A2.594 2.594 0 0 0 14.6 8h4.74a.656.656 0 0 0 .466-1.12L13.121.196A.654.654 0 0 0 12 .663Zm2.576 9.365A4.608 4.608 0 0 1 9.97 5.422V.058H1.994A2 2 0 0 0 0 2.052v15.952a2 2 0 0 0 1.994 1.994h15.952a2 2 0 0 0 1.994-1.994v-7.976h-5.364ZM12 13H8a2 2 0 1 0 4 0Zm5.777.331a1.11 1.11 0 1 1-2.222 0 1.11 1.11 0 0 1 2.222 0ZM2 12.236 2.535 11l3.09 1.784a.25.25 0 0 1 0 .432L2.535 15 2 13.764 3.323 13 2 12.236Z"/></svg>