<svg aria-hidden="false" width="20" height="20" viewBox="0 0 24 24"><path fill-rule="evenodd" clip-rule="evenodd" d="M14.99 11c0 1.66-1.33 3-2.99 3-1.66 0-3-1.34-3-3V5c0-1.66 1.34-3 3-3s3 1.34 3 3l-.01 6ZM12 16.1c2.76 0 5.3-2.1 5.3-5.1H19c0 3.42-2.72 6.24-6 6.72V21h-2v-3.28c-3.28-.49-6-3.31-6-6.72h1.7c0 3 2.54 5.1 5.3 5.1ZM12 4c-.8 0-1 .667-1 1v6c0 .333.2 1 1 1s1-.667 1-1V5c0-.333-.2-1-1-1Z" fill="transparent"/><path fill-rule="evenodd" clip-rule="evenodd" d="M14.99 11c0 1.66-1.33 3-2.99 3-1.66 0-3-1.34-3-3V5c0-1.66 1.34-3 3-3s3 1.34 3 3l-.01 6ZM12 16.1c2.76 0 5.3-2.1 5.3-5.1H19c0 3.42-2.72 6.24-6 6.72V22h-2v-4.28c-3.28-.49-6-3.31-6-6.72h1.7c0 3 2.54 5.1 5.3 5.1Z" fill="#fff"/></svg>