<svg xmlns="http://www.w3.org/2000/svg" viewBox="0 0 24 24" width="48" height="48"><path fill="#fff" d="m5.6797 2 1.4785 5.3438v2.5625h1.2813V7.3438L9.9375 2h-1.291l-.5371 2.4316c-.151.71-.247 1.2147-.291 1.5157h-.0391c-.063-.421-.159-.9294-.291-1.5254L6.9707 2h-1.291zm5.752 2.0176c-.434 0-.7838.0848-1.0508.2578-.267.172-.4639.4472-.5899.8242-.125.377-.1875.876-.1875 1.498v.8399c0 .615.054 1.1075.164 1.4785.11.371.2957.6443.5567.8203.261.176.6201.2637 1.0781.2637.446 0 .8006-.0868 1.0606-.2598s.4484-.4443.5644-.8183c.116-.374.1739-.8684.1739-1.4844v-.8398c0-.621-.0588-1.1182-.1778-1.4922-.119-.373-.3084-.6482-.5664-.8243-.258-.176-.5984-.2636-1.0254-.2636zm2.4472.1133v4.3144c0 .534.0895.9267.2715 1.1777.182.251.4646.377.8476.377.552 0 .9682-.2668 1.2442-.8008h.0273l.1133.707h1.0176V4.131h-1.2988v4.5879c-.05.107-.1265.1946-.2305.2636-.104.07-.2112.1035-.3242.1035-.132 0-.2262-.054-.2832-.164-.057-.11-.086-.2948-.086-.5528V4.131H13.879zm-2.4766.7812c.182 0 .3109.0951.3829.2871.072.191.1074.4952.1074.9102v1.7988c0 .427-.0354.7358-.1074.9238-.072.188-.1999.2822-.3809.2832-.182 0-.308-.0952-.377-.2832-.07-.188-.1035-.4968-.1035-.9238V6.1094c0-.414.0355-.7182.1075-.9102.072-.191.195-.287.371-.287zM5 11c-1.1 0-2 .9-2 2v7c0 1.1.9 2 2 2h14c1.1 0 2-.9 2-2v-7c0-1.1-.9-2-2-2H5zm7.0488 2h1.0567v2.5684h.0078c.095-.186.2312-.3353.4062-.4493.175-.114.3644-.1699.5664-.1699.26 0 .4634.069.6114.207.148.138.2562.361.3222.668.066.308.0977.7353.0977 1.2813v.7715h.002c0 .727-.0887 1.2595-.2637 1.6015-.175.342-.4474.5137-.8184.5137-.207 0-.3944-.0476-.5644-.1426-.17-.095-.2979-.2256-.3829-.3906h-.0234l-.1113.461h-.9063V13zm-6.5625.246h3.252v.8849H7.6484v5.789H6.5762v-5.789H5.4863v-.8848zm11.6114 1.7052c.376 0 .6651.069.8671.207.201.138.3428.3535.4258.6445.082.292.123.695.123 1.209v.836h-1.8359v.248c0 .313.0084.5471.0274.7031.019.156.0572.2708.1152.3418.058.072.1475.1074.2695.1074.164 0 .277-.0644.338-.1914s.0945-.3377.0995-.6347l.9473.0547c.005.042.0078.1017.0078.1757 0 .451-.124.7878-.371 1.0098-.247.223-.594.334-1.045.334-.541 0-.9207-.1708-1.1387-.5098-.218-.339-.3261-.8632-.3261-1.5742v-.8516c0-.732.1129-1.2665.3379-1.6035.225-.337.6122-.5058 1.1582-.5058zm-8.6875.0937h1.0996v3.5801c0 .217.0242.3728.0722.4648.048.093.1263.1387.2383.1387.095 0 .1884-.0289.2754-.0879a.5377.5377 0 0 0 .1934-.2226v-3.873h1.0996v4.875h-.8614l-.0937-.5977h-.0254c-.234.452-.5838.6777-1.0508.6777-.324 0-.5608-.1064-.7148-.3184-.154-.212-.2324-.5441-.2324-.9941v-3.6426zm8.664.6485c-.117 0-.2037.0355-.2597.1035-.056.069-.0934.1819-.1114.3379-.019.156-.0273.3929-.0273.7109v.3496h.8027v-.3496c0-.313-.0102-.549-.0312-.711-.02-.162-.0593-.2757-.1153-.3417s-.1408-.0996-.2578-.0996zm-3.4824.0351c-.106 0-.203.042-.293.127-.09.085-.1544.1941-.1914.3261v2.7676c.048.085.1105.1484.1875.1914.077.042.159.0645.25.0645.117 0 .2084-.042.2774-.127.069-.085.1194-.2277.1484-.4297.029-.201.043-.4809.043-.8359v-.627c0-.382-.0112-.6758-.0352-.8828-.024-.207-.067-.3563-.127-.4433-.061-.087-.1477-.1309-.2597-.1309z"/></svg>